<svg width="135" height="130" viewBox="0 0 135 130" fill="none" xmlns="http://www.w3.org/2000/svg">
<path d="M47.1973 102.305C49.4824 105.293 50.625 108.721 50.625 112.588C50.625 115.576 49.834 118.389 48.252 121.025C46.8457 123.486 44.8242 125.508 42.1875 127.09C39.7266 128.672 36.9141 129.463 33.75 129.463C30.5859 129.463 27.6855 128.672 25.0488 127.09C22.5879 125.508 20.5664 123.486 18.9844 121.025C17.5781 118.389 16.875 115.576 16.875 112.588C16.875 109.424 17.5781 106.611 18.9844 104.15C20.5664 101.514 22.5879 99.4922 25.0488 98.0859C27.6855 96.5039 30.5859 95.7129 33.75 95.7129C36.2109 95.7129 38.4961 96.1523 40.6055 97.0312L48.5156 87.0117C46.0547 84.1992 44.2969 81.0352 43.2422 77.5195C42.1875 73.8281 41.9238 70.1367 42.4512 66.4453L31.1133 62.4902C29.5312 64.9512 27.5098 66.8848 25.0488 68.291C22.5879 69.6973 19.8633 70.4004 16.875 70.4004C13.7109 70.4004 10.8105 69.6094 8.17383 68.0273C5.71289 66.4453 3.69141 64.4238 2.10938 61.9629C0.703125 59.3262 0 56.5137 0 53.5254C0 50.3613 0.703125 47.5488 2.10938 45.0879C3.69141 42.4512 5.71289 40.4297 8.17383 39.0234C10.8105 37.4414 13.7109 36.6504 16.875 36.6504C20.0391 36.6504 22.8516 37.4414 25.3125 39.0234C27.9492 40.4297 29.9707 42.4512 31.377 45.0879C32.959 47.5488 33.75 50.3613 33.75 53.5254C33.75 54.0527 33.75 54.4043 33.75 54.5801L45.0879 58.5352C46.8457 55.0195 49.3066 52.1191 52.4707 49.834C55.6348 47.5488 59.2383 46.0547 63.2812 45.3516V33.2227C59.5898 32.3438 56.5137 30.4102 54.0527 27.4219C51.7676 24.2578 50.625 20.7422 50.625 16.875C50.625 13.7109 51.3281 10.8984 52.7344 8.4375C54.3164 5.80078 56.3379 3.7793 58.7988 2.37305C61.4355 0.791016 64.3359 0 67.5 0C70.6641 0 73.4766 0.791016 75.9375 2.37305C78.5742 3.7793 80.5957 5.80078 82.002 8.4375C83.584 10.8984 84.375 13.7109 84.375 16.875C84.375 20.7422 83.1445 24.2578 80.6836 27.4219C78.3984 30.4102 75.4102 32.3438 71.7188 33.2227V45.3516C75.5859 46.0547 79.1016 47.5488 82.2656 49.834C85.4297 52.1191 87.9785 55.0195 89.9121 58.5352L101.25 54.5801C101.25 54.4043 101.25 54.2285 101.25 54.0527C101.25 53.877 101.25 53.7012 101.25 53.5254C101.25 50.3613 101.953 47.5488 103.359 45.0879C104.941 42.4512 106.963 40.4297 109.424 39.0234C112.061 37.4414 114.961 36.6504 118.125 36.6504C121.289 36.6504 124.102 37.4414 126.562 39.0234C129.199 40.4297 131.221 42.4512 132.627 45.0879C134.209 47.5488 135 50.3613 135 53.5254C135 56.5137 134.209 59.3262 132.627 61.9629C131.221 64.4238 129.199 66.4453 126.562 68.0273C124.102 69.6094 121.289 70.4004 118.125 70.4004C115.137 70.4004 112.412 69.6973 109.951 68.291C107.49 66.8848 105.469 64.9512 103.887 62.4902L92.5488 66.4453C93.0762 70.1367 92.8125 73.8281 91.7578 77.5195C90.8789 81.0352 89.1211 84.2871 86.4844 87.2754L94.3945 97.0312C96.5039 96.1523 98.7891 95.7129 101.25 95.7129C104.414 95.7129 107.227 96.5039 109.688 98.0859C112.324 99.4922 114.346 101.514 115.752 104.15C117.334 106.611 118.125 109.424 118.125 112.588C118.125 115.576 117.334 118.389 115.752 121.025C114.346 123.486 112.324 125.508 109.688 127.09C107.227 128.672 104.414 129.463 101.25 129.463C98.0859 129.463 95.1855 128.672 92.5488 127.09C90.0879 125.508 88.0664 123.486 86.4844 121.025C85.0781 118.389 84.375 115.576 84.375 112.588C84.375 108.721 85.5176 105.293 87.8027 102.305L79.8926 92.5488C76.0254 94.6582 71.8945 95.7129 67.5 95.7129C63.1055 95.7129 58.9746 94.6582 55.1074 92.5488L47.1973 102.305Z" fill="#00F0FF"/>
</svg>
