<svg width="36" height="35" viewBox="0 0 36 35" fill="none" xmlns="http://www.w3.org/2000/svg">
<path d="M12.5856 27.2812C13.195 28.0781 13.4997 28.9922 13.4997 30.0234C13.4997 30.8203 13.2888 31.5703 12.8669 32.2734C12.4919 32.9297 11.9528 33.4688 11.2497 33.8906C10.5934 34.3125 9.84344 34.5234 8.99969 34.5234C8.15594 34.5234 7.3825 34.3125 6.67938 33.8906C6.02313 33.4688 5.48406 32.9297 5.06219 32.2734C4.68719 31.5703 4.49969 30.8203 4.49969 30.0234C4.49969 29.1797 4.68719 28.4297 5.06219 27.7734C5.48406 27.0703 6.02313 26.5312 6.67938 26.1562C7.3825 25.7344 8.15594 25.5234 8.99969 25.5234C9.65594 25.5234 10.2653 25.6406 10.8278 25.875L12.9372 23.2031C12.2809 22.4531 11.8122 21.6094 11.5309 20.6719C11.2497 19.6875 11.1794 18.7031 11.32 17.7188L8.29656 16.6641C7.87469 17.3203 7.33563 17.8359 6.67938 18.2109C6.02313 18.5859 5.29656 18.7734 4.49969 18.7734C3.65594 18.7734 2.8825 18.5625 2.17938 18.1406C1.52313 17.7188 0.984064 17.1797 0.562189 16.5234C0.187189 15.8203 -0.000310898 15.0703 -0.000310898 14.2734C-0.000310898 13.4297 0.187189 12.6797 0.562189 12.0234C0.984064 11.3203 1.52313 10.7812 2.17938 10.4062C2.8825 9.98438 3.65594 9.77344 4.49969 9.77344C5.34344 9.77344 6.09344 9.98438 6.74969 10.4062C7.45281 10.7812 7.99188 11.3203 8.36688 12.0234C8.78875 12.6797 8.99969 13.4297 8.99969 14.2734C8.99969 14.4141 8.99969 14.5078 8.99969 14.5547L12.0231 15.6094C12.4919 14.6719 13.1481 13.8984 13.9919 13.2891C14.8356 12.6797 15.7966 12.2813 16.8747 12.0938V8.85938C15.8903 8.625 15.07 8.10937 14.4138 7.3125C13.8044 6.46875 13.4997 5.53125 13.4997 4.5C13.4997 3.65625 13.6872 2.90625 14.0622 2.25C14.4841 1.54688 15.0231 1.00781 15.6794 0.632812C16.3825 0.210938 17.1559 0 17.9997 0C18.8434 0 19.5934 0.210938 20.2497 0.632812C20.9528 1.00781 21.4919 1.54688 21.8669 2.25C22.2888 2.90625 22.4997 3.65625 22.4997 4.5C22.4997 5.53125 22.1716 6.46875 21.5153 7.3125C20.9059 8.10937 20.1091 8.625 19.1247 8.85938V12.0938C20.1559 12.2813 21.0934 12.6797 21.9372 13.2891C22.7809 13.8984 23.4606 14.6719 23.9763 15.6094L26.9997 14.5547C26.9997 14.5078 26.9997 14.4609 26.9997 14.4141C26.9997 14.3672 26.9997 14.3203 26.9997 14.2734C26.9997 13.4297 27.1872 12.6797 27.5622 12.0234C27.9841 11.3203 28.5231 10.7812 29.1794 10.4062C29.8825 9.98438 30.6559 9.77344 31.4997 9.77344C32.3434 9.77344 33.0934 9.98438 33.7497 10.4062C34.4528 10.7812 34.9919 11.3203 35.3669 12.0234C35.7888 12.6797 35.9997 13.4297 35.9997 14.2734C35.9997 15.0703 35.7888 15.8203 35.3669 16.5234C34.9919 17.1797 34.4528 17.7188 33.7497 18.1406C33.0934 18.5625 32.3434 18.7734 31.4997 18.7734C30.7028 18.7734 29.9763 18.5859 29.32 18.2109C28.6638 17.8359 28.1247 17.3203 27.7028 16.6641L24.6794 17.7188C24.82 18.7031 24.7497 19.6875 24.4684 20.6719C24.2341 21.6094 23.7653 22.4766 23.0622 23.2734L25.1716 25.875C25.7341 25.6406 26.3434 25.5234 26.9997 25.5234C27.8434 25.5234 28.5934 25.7344 29.2497 26.1562C29.9528 26.5312 30.4919 27.0703 30.8669 27.7734C31.2888 28.4297 31.4997 29.1797 31.4997 30.0234C31.4997 30.8203 31.2888 31.5703 30.8669 32.2734C30.4919 32.9297 29.9528 33.4688 29.2497 33.8906C28.5934 34.3125 27.8434 34.5234 26.9997 34.5234C26.1559 34.5234 25.3825 34.3125 24.6794 33.8906C24.0231 33.4688 23.4841 32.9297 23.0622 32.2734C22.6872 31.5703 22.4997 30.8203 22.4997 30.0234C22.4997 28.9922 22.8044 28.0781 23.4138 27.2812L21.3044 24.6797C20.2731 25.2422 19.1716 25.5234 17.9997 25.5234C16.8278 25.5234 15.7263 25.2422 14.695 24.6797L12.5856 27.2812Z" fill="#D41111"/>
</svg>
