<svg width="30" height="28" viewBox="0 0 30 28" fill="none" xmlns="http://www.w3.org/2000/svg">
<path d="M17.5075 18.9844L26.5075 27.9844L29.6716 24.75L20.6716 15.75L17.5075 18.9844ZM23.0622 11.1797C22.4997 11.1797 21.9372 11.0859 21.3747 10.8984L4.28875 27.9141L1.12469 24.75L12.2341 13.6406L9.56219 10.9688L8.5075 12.0234L6.32781 9.91406V14.2031L5.27313 15.2578L-0.000310898 9.91406L1.05438 8.85938H5.27313L3.16375 6.75L8.5075 1.40625C9.07 0.84375 9.72625 0.46875 10.4763 0.28125C11.2731 0.09375 12.0466 0.09375 12.7966 0.28125C13.5934 0.46875 14.2731 0.84375 14.8356 1.40625L11.6716 4.64062L13.7809 6.75L12.7263 7.80469L15.3981 10.4766L18.1403 7.66406C17.9528 7.10156 17.8591 6.53906 17.8591 5.97656C17.8591 4.99219 18.0934 4.10156 18.5622 3.30469C19.0309 2.50781 19.6638 1.875 20.4606 1.40625C21.2575 0.9375 22.1247 0.703125 23.0622 0.703125C23.5309 0.703125 23.9528 0.773438 24.3278 0.914062C24.7497 1.00781 25.1247 1.14844 25.4528 1.33594L21.445 5.34375L23.695 7.59375L27.7028 3.58594C27.8903 3.91406 28.0309 4.28906 28.1247 4.71094C28.2653 5.08594 28.3356 5.50781 28.3356 5.97656C28.3356 6.91406 28.1013 7.78125 27.6325 8.57812C27.1638 9.375 26.5309 10.0078 25.7341 10.4766C24.9372 10.9453 24.0466 11.1797 23.0622 11.1797Z" fill="#D41111"/>
</svg>
