<svg width="30" height="30" viewBox="0 0 30 30" fill="none" xmlns="http://www.w3.org/2000/svg"><mask id="mask0_169_1263" style="mask-type:luminance" maskUnits="userSpaceOnUse" x="0" y="16" width="14" height="14"><path d="M0 16.4268H13.3538V29.78H0V16.4268Z" fill="white"/></mask><g mask="url(#mask0_169_1263)"><path d="M13.3319 16.4492H0V29.7806H13.3319V16.4492ZM11.4706 27.9191H1.86153V18.3106H11.4706V27.9191Z" fill="#D41111"/></g><mask id="mask1_169_1263" style="mask-type:luminance" maskUnits="userSpaceOnUse" x="17" y="16" width="13" height="14"><path d="M17.1963 16.7822H29.7811V29.432H17.1963V16.7822Z" fill="white"/></mask><g mask="url(#mask1_169_1263)"><path d="M19.8666 29.3951L23.5017 25.76L27.1368 29.3951L29.7816 26.7501L26.1465 23.1141L29.7816 19.479L27.1368 16.834L23.5017 20.4691L19.8666 16.834L17.2207 19.479L20.8558 23.1141L17.2207 26.7501L19.8666 29.3951Z" fill="#D41111"/></g><mask id="mask2_169_1263" style="mask-type:luminance" maskUnits="userSpaceOnUse" x="0" y="0" width="14" height="14"><path d="M0 0H13.3538V13.3538H0V0Z" fill="white"/></mask><g mask="url(#mask2_169_1263)"><path d="M13.3319 0H0V13.3319H13.3319V0ZM11.4706 11.4705H1.86153V1.86141H11.4706V11.4705Z" fill="#D41111"/></g><mask id="mask3_169_1263" style="mask-type:luminance" maskUnits="userSpaceOnUse" x="17" y="0" width="13" height="13"><path d="M17.1963 0.348633H29.7811V12.9984H17.1963V0.348633Z" fill="white"/></mask><g mask="url(#mask3_169_1263)"><path d="M19.8666 12.9466L23.5017 9.31153L27.1368 12.9466L29.7816 10.3016L26.1465 6.66559L29.7816 3.03049L27.1368 0.385742L23.5017 4.02084L19.8666 0.385742L17.2207 3.03049L20.8558 6.66559L17.2207 10.3016L19.8666 12.9466Z" fill="#D41111"/></g></svg>
