<svg width="45" height="34" viewBox="0 0 45 34" fill="none" xmlns="http://www.w3.org/2000/svg">
<path d="M15.441 20.8288C15.1286 20.5164 14.7192 20.3516 14.2759 20.3516C13.8384 20.3516 13.4233 20.5221 13.1109 20.8288L11.2637 22.6645C10.627 23.3122 10.627 24.3579 11.2637 25.0061C11.9114 25.6428 12.9571 25.6428 13.5938 25.0061L15.441 23.1589C16.0887 22.5111 16.0887 21.477 15.441 20.8288Z" fill="#D41111"/>
<path d="M16.3843 27.7863L18.2315 25.9506C18.8682 25.3029 18.8682 24.2572 18.2315 23.6205C17.9076 23.2966 17.4815 23.1318 17.0549 23.1318C16.6398 23.1318 16.2137 23.3024 15.8899 23.6205L14.0542 25.4562C13.4064 26.1039 13.4064 27.1496 14.0542 27.7863C14.7077 28.4341 15.7532 28.4341 16.3843 27.7863Z" fill="#D41111"/>
<path d="M19.1805 30.5814L21.0162 28.7342C21.6639 28.0975 21.6639 27.0518 21.0162 26.4041C20.3966 25.7846 19.3113 25.7846 18.6861 26.4041L16.8389 28.2513C16.2021 28.888 16.2021 29.9337 16.8389 30.5814C17.4871 31.2181 18.5328 31.2181 19.1805 30.5814Z" fill="#D41111"/>
<path d="M21.9596 33.3604L23.8011 31.519H23.8125C24.4493 30.8712 24.4493 29.8255 23.8125 29.1889C23.4887 28.865 23.0626 28.7002 22.6475 28.7002C22.2214 28.7002 21.7948 28.8707 21.4709 29.1889L19.6352 31.0245C18.9875 31.6723 18.9875 32.718 19.6352 33.3547C20.283 34.0086 21.3287 34.0086 21.9596 33.3604Z" fill="#D41111"/>
<path d="M25 33.3611C25.6478 32.7244 25.6478 31.6787 25 31.0481L24.8581 30.9062C24.7674 31.2927 24.5739 31.6677 24.2615 31.9805L22.8008 33.4413C23.4089 33.9577 24.4316 33.9467 25 33.3611Z" fill="#D41111"/>
<path d="M38.8045 12.3666C39.9185 13.4806 41.845 13.4806 42.9589 12.3666L44.6413 10.6958L33.9398 0L32.2574 1.67087C31.1206 2.82453 31.1206 4.68312 32.2574 5.83678L38.8045 12.3666Z" fill="#D41111"/>
<path d="M20.4773 13.4697C20.3975 13.5494 20.3239 13.6402 20.2556 13.731L20.2045 13.7821C20.1763 13.8447 20.1137 13.9866 20.0736 14.1289L19.9203 14.1174L20.0736 14.1685L20.0622 14.2082L18.5733 17.766C18.2265 18.6072 18.6129 19.5788 19.4541 19.9256C20.2839 20.261 21.2502 19.8745 21.6138 19.0333L23.0631 15.5778C23.0745 15.5381 23.1028 15.498 23.1257 15.4755L24.8873 13.7305C25.0182 13.5997 25.2227 13.6169 25.3536 13.7305L30.139 18.516L33.4751 21.8693L36.4362 18.8971C38.6355 16.7089 38.6355 13.1286 36.4362 10.9404L33.7081 8.21232C32.6453 7.13803 31.2246 6.55859 29.7243 6.55859C28.2125 6.55859 26.8032 7.13848 25.7405 8.21232L22.5467 11.3951L22.5582 11.4066L20.4773 13.4697Z" fill="#D41111"/>
<path d="M5.84257 12.3674L9.8264 8.38355L10.639 7.55381C10.6504 7.55381 10.6504 7.55381 10.6504 7.54235L12.3725 5.83752C12.9295 5.28055 13.2419 4.54161 13.2419 3.75761C13.2419 2.97327 12.9295 2.22899 12.3725 1.67771L10.6901 0.00683594L0 10.7021L1.68238 12.373C2.83029 13.5209 4.69421 13.521 5.84257 12.3674Z" fill="#D41111"/>
<path d="M10.127 9.00294L8.21194 10.9294C6.01269 13.1176 6.01269 16.698 8.21194 18.8862L11.1731 21.8473L12.105 20.9268L12.0936 20.9153L12.6506 20.3584H12.662C13.5147 19.5057 15.0318 19.5057 15.8959 20.3698C16.4926 20.9665 16.686 21.8076 16.4926 22.5691C17.254 22.3646 18.0952 22.5576 18.6918 23.149C19.2885 23.757 19.4819 24.6097 19.2717 25.3711C19.5048 25.3085 19.7379 25.2914 19.982 25.3085C20.0331 25.2971 20.0728 25.3085 20.1129 25.32C20.6188 25.3711 21.1075 25.5646 21.4714 25.9395C22.0795 26.5362 22.2615 27.3774 22.0681 28.1388C22.8295 27.9454 23.6707 28.1273 24.2673 28.7187C24.6309 29.0822 24.8358 29.5312 24.9041 29.9974L25.4725 30.5659C26.1092 31.174 27.1659 31.1854 27.8141 30.5659C28.4508 29.9181 28.4508 28.8725 27.8027 28.2358L21.9597 22.4214C21.846 22.2906 21.846 22.0861 21.9597 21.9552C22.0905 21.8416 22.295 21.8416 22.4259 21.9552L28.2626 27.792C28.8822 28.4001 29.9675 28.4001 30.5756 27.792C30.8995 27.4796 31.0643 27.0817 31.0643 26.6384C31.0643 26.2008 30.8938 25.769 30.5756 25.4618L24.0967 18.9658C23.9659 18.8349 23.9659 18.6305 24.0967 18.5111C24.2104 18.3802 24.4206 18.3802 24.5515 18.5111L31.0475 24.9899C31.6842 25.6266 32.781 25.6095 33.3776 25.0014C33.69 24.6775 33.8548 24.2796 33.8548 23.8248C33.8548 23.3873 33.6843 22.9722 33.3776 22.6712L26.1426 15.4477L25.1194 14.4135L23.6305 15.8852L22.2098 19.2897C21.8348 20.1705 20.9822 20.6993 20.0732 20.6993C19.789 20.6993 19.4933 20.6367 19.1923 20.5173C18.0387 20.0401 17.4875 18.693 17.9762 17.5051L19.4369 13.9984L19.4484 13.9588C19.488 13.7768 19.5792 13.5551 19.7097 13.3621C19.7211 13.3507 19.7493 13.3225 19.7608 13.311C19.7722 13.2995 19.7722 13.2995 19.7722 13.2828C19.8233 13.2202 19.9031 13.1008 20.0053 12.9986L21.8525 11.1514L18.8914 8.20176C16.7547 6.05361 13.3274 5.97961 11.1052 8.00832L10.127 9.00294Z" fill="#D41111"/>
</svg>
