<svg width="18" height="24" viewBox="0 0 18 24" fill="none" xmlns="http://www.w3.org/2000/svg">
<path d="M8.92463 0C4.02484 0 0 4.19956 0 9.35854C0 14.3494 8.06373 23.3932 8.39957 23.7711H8.39922C8.5319 23.917 8.72016 24 8.91709 24C9.11438 24 9.30263 23.917 9.43531 23.7711C9.77813 23.3932 17.8349 14.3495 17.8349 9.35854C17.8488 4.19956 13.8239 0 8.92448 0H8.92463ZM8.92463 11.8367C7.88989 11.7867 6.95457 11.2056 6.45095 10.3001C5.94766 9.39491 5.94766 8.29358 6.45095 7.3884C6.95458 6.48287 7.88998 5.90215 8.92463 5.85182C9.95936 5.90219 10.8947 6.48293 11.3979 7.3884C11.9012 8.29358 11.9012 9.39491 11.3979 10.3001C10.8947 11.2056 9.95927 11.7867 8.92463 11.8367Z" fill="white"/>
</svg>
