<svg width="34" height="28" viewBox="0 0 34 28" fill="none" xmlns="http://www.w3.org/2000/svg">
<path d="M33.8827 5.71087L16.9425 0L0.00162148 5.71087H0V8.31603C0 8.77437 0.182145 9.21382 0.506171 9.53781C0.830198 9.86183 1.26961 10.044 1.72795 10.044H4.93494V24.266H4.6628C4.22716 24.2665 3.86878 24.6103 3.85045 25.0457H2.52649C2.09734 25.0457 1.74928 25.3937 1.74928 25.8229V27.7803H32.1352V25.8229C32.1352 25.3937 31.7872 25.0459 31.358 25.0457H30.0341C30.0157 24.6103 29.6576 24.2665 29.2217 24.266H28.9496V10.044H32.1569C32.6149 10.044 33.0546 9.86183 33.3786 9.53781C33.7027 9.21378 33.8845 8.77437 33.8845 8.31603V5.71087H33.8827ZM9.4811 24.2665H9.20924V10.0445H14.7272V24.2665H14.455C14.0191 24.267 13.661 24.6108 13.6427 25.0462H10.2935C10.2751 24.6108 9.917 24.267 9.4811 24.2665ZM24.6744 24.2665H24.4023H24.4026C23.9667 24.267 23.6085 24.6108 23.5902 25.0462H20.0857C20.0673 24.6108 19.7092 24.267 19.2733 24.2665H19.0012V10.0445H24.6745L24.6744 24.2665Z" fill="white"/>
</svg>
