<svg width="43" height="24" viewBox="0 0 43 24" fill="none" xmlns="http://www.w3.org/2000/svg">
<path d="M26.8171 7.15837C26.8171 10.1524 24.3898 12.5794 21.3957 12.5794C18.4019 12.5794 15.9746 10.1524 15.9746 7.15837C15.9746 4.16429 18.4019 1.7373 21.3957 1.7373C24.3898 1.7373 26.8171 4.16429 26.8171 7.15837Z" fill="white"/>
<path d="M12.8125 23.1042H29.9804C29.8868 17.9256 26.0834 13.7578 21.3973 13.7578C16.7106 13.7578 12.9063 17.9258 12.8133 23.1042H12.8125Z" fill="white"/>
<path d="M39.8486 4.04525C39.8486 6.27946 38.0373 8.09083 35.8031 8.09083C33.5689 8.09083 31.7578 6.27946 31.7578 4.04525C31.7578 1.81104 33.5689 0 35.8031 0C38.0373 0 39.8486 1.81104 39.8486 4.04525Z" fill="white"/>
<mask id="mask0_169_1235" style="mask-type:luminance" maskUnits="userSpaceOnUse" x="29" y="8" width="14" height="8">
<path d="M29.3145 8.9541H42.208V15.9915H29.3145V8.9541Z" fill="white"/>
</mask>
<g mask="url(#mask0_169_1235)">
<path d="M29.3967 15.9437H42.2081C42.138 12.079 39.2997 8.96875 35.8023 8.96875C32.3049 8.96875 29.4665 12.079 29.3965 15.9437H29.3967Z" fill="white"/>
</g>
<path d="M10.4518 4.04525C10.4518 6.27946 8.64078 8.09083 6.40658 8.09083C4.17237 8.09083 2.36133 6.27946 2.36133 4.04525C2.36133 1.81104 4.17237 0 6.40658 0C8.64078 0 10.4518 1.81104 10.4518 4.04525Z" fill="white"/>
<mask id="mask1_169_1235" style="mask-type:luminance" maskUnits="userSpaceOnUse" x="0" y="8" width="13" height="8">
<path d="M0 8.9541H12.8944V15.9915H0V8.9541Z" fill="white"/>
</mask>
<g mask="url(#mask1_169_1235)">
<path d="M6.4058 8.96875C2.90837 8.96875 0.0700389 12.079 0 15.9437H12.8114C12.7414 12.079 9.90305 8.96875 6.40563 8.96875H6.4058Z" fill="white"/>
</g>
</svg>
