<svg width="513" height="513" viewBox="0 0 513 513" fill="none" xmlns="http://www.w3.org/2000/svg">
<path d="M251.266 138.295L251.179 195.297L251.028 212.239C250.758 238.759 250.437 249.281 249.855 250.574C248.012 254.743 243.205 259.073 238.718 260.837L238.105 261.055L237.875 261.132C234.114 262.371 230.003 262.441 194.571 262.441L186.773 262.431L179.872 262.403C162.345 262.303 153.519 262.008 151.786 261.559C147.869 260.383 143.569 256.754 141.582 252.995L141.324 252.488L141.179 252.186C140.064 249.764 139.87 247.051 139.85 231.38L139.845 223.931L139.832 220.189C139.746 204.682 139.181 202.929 135.648 200.357L134.987 199.886C133.002 198.497 131.521 198.319 106.479 198.299L83.6478 198.309L69.3582 198.355C63.6274 198.387 59 203.046 59 208.781V276.992C59 280.906 62.1142 284.093 65.9984 284.205L66.2521 284.208L87.1272 284.089L92.5942 284.092C108.505 284.117 110.102 284.313 113.267 285.762L113.808 286.014C118.081 287.957 121.45 290.957 123.477 294.573L123.734 295.042L123.824 295.224C124.776 297.272 125.062 302.21 125.331 325.598L125.456 374.791C125.481 384.436 133.236 392.252 142.837 392.383L143.181 392.385L191.847 392.172L238.784 392.543C248.421 392.619 256.313 384.941 256.545 375.335L256.55 374.956L256.826 281.927C256.826 278.961 257.472 276.033 258.718 273.346L258.909 272.944C261.633 267.572 266.761 263.724 272.77 262.521L272.954 262.487L273.154 262.457C276.644 261.957 290.853 261.664 313.587 261.64L327.741 261.644L337.025 261.667C355.201 261.749 357.26 262.063 360.424 263.242C362.827 264.124 365.872 266.129 367.555 267.813L368.156 268.44L368.532 268.844C372.474 273.133 372.949 275.782 372.998 292.679L373.009 301.912C373.066 318.651 373.567 320.263 377.315 322.881L377.695 323.142C379.748 324.503 382.371 324.58 413.464 324.58L428.053 324.564C445.643 324.506 447.647 324.247 449.279 323.137L450.202 322.511L450.424 322.355C453.98 319.81 453.853 317.626 453.926 283.207L454 251.293C454 249.63 453.412 248.023 452.337 246.761L452.163 246.565L451.837 246.221C448.648 242.919 446.509 242.456 427.628 242.402L417.111 242.389L414.148 242.376C396.258 242.258 394.646 241.496 390.469 237.104L389.616 236.196C385.795 232.082 385.573 230.226 385.332 191.616L385.155 138.264C385.123 128.544 377.241 120.683 367.528 120.683H268.893C259.168 120.683 251.281 128.564 251.266 138.295Z" fill="black"></path>
</svg>
