<svg width="12" height="10" viewBox="0 0 12 10" fill="none" xmlns="http://www.w3.org/2000/svg">
<path d="M10.5 0C10.8099 0 11.0742 0.11849 11.293 0.355469C11.5299 0.574219 11.6484 0.847656 11.6484 1.17578V8.17578C11.6484 8.50391 11.5299 8.78646 11.293 9.02344C11.0742 9.24219 10.8099 9.35156 10.5 9.35156H1.14844C0.838542 9.35156 0.565104 9.24219 0.328125 9.02344C0.109375 8.78646 0 8.50391 0 8.17578V1.17578C0 0.847656 0.109375 0.574219 0.328125 0.355469C0.565104 0.11849 0.838542 0 1.14844 0H10.5ZM10.5 8.17578V2.35156H1.14844V8.17578H10.5ZM9.32422 7.60156V6.42578H5.82422V7.60156H9.32422ZM3.19922 7.60156L5.52344 5.25L3.19922 2.92578L2.37891 3.74609L3.88281 5.25L2.37891 6.78125L3.19922 7.60156Z" fill="white"/>
</svg>
