<svg width="27" height="27" viewBox="0 0 27 27" fill="none" xmlns="http://www.w3.org/2000/svg">
<path fill-rule="evenodd" clip-rule="evenodd" d="M5.00017 8.49609C2.79201 8.49609 1 10.5121 1 12.9959C1 15.4801 2.79201 17.4961 5.00017 17.4961C7.20799 17.4961 9 15.4801 9 12.9959C9 10.5121 7.20799 8.49609 5.00017 8.49609ZM5.00017 11.4961C5.7359 11.4961 6.33333 12.1682 6.33333 12.9959C6.33333 13.824 5.73588 14.4961 5.00017 14.4961C4.26411 14.4961 3.66667 13.824 3.66667 12.9959C3.66667 12.1682 4.26412 11.4961 5.00017 11.4961Z" fill="black"/>
<mask id="mask0_178_551" style="mask-type:luminance" maskUnits="userSpaceOnUse" x="11" y="3" width="9" height="9">
<path d="M11.5496 3.49609H19.743V11.5961H11.5496V3.49609Z" fill="white"/>
</mask>
<g mask="url(#mask0_178_551)">
<path fill-rule="evenodd" clip-rule="evenodd" d="M15.6421 3.49609C13.4171 3.49609 11.6111 5.30206 11.6111 7.52708C11.6111 9.75245 13.4171 11.5584 15.6421 11.5584C17.8674 11.5584 19.6734 9.75245 19.6734 7.52708C19.6734 5.30206 17.8674 3.49609 15.6421 3.49609ZM15.6421 6.18353C16.3839 6.18353 16.986 6.78564 16.986 7.52708C16.986 8.26888 16.3839 8.87097 15.6421 8.87097C14.9003 8.87097 14.2985 8.26887 14.2985 7.52708C14.2985 6.78562 14.9003 6.18353 15.6421 6.18353Z" fill="black"/>
</g>
<path fill-rule="evenodd" clip-rule="evenodd" d="M15.9998 14.4961C13.792 14.4961 12 16.2881 12 18.4959C12 20.7041 13.792 22.4961 15.9998 22.4961C18.208 22.4961 20 20.7041 20 18.4959C20 16.2881 18.208 14.4961 15.9998 14.4961ZM15.9998 17.1628C16.7359 17.1628 17.3333 17.7599 17.3333 18.4959C17.3333 19.232 16.7359 19.8294 15.9998 19.8294C15.2638 19.8294 14.6667 19.232 14.6667 18.4959C14.6667 17.7599 15.2638 17.1628 15.9998 17.1628Z" fill="black"/>
<path fill-rule="evenodd" clip-rule="evenodd" d="M8.17028 12.3637L14.1707 9.8635C14.9117 9.55613 15.2117 8.80334 14.8413 8.18711C14.4721 7.56959 13.5692 7.31958 12.8297 7.62851L6.82934 10.1287C6.08833 10.4361 5.78832 11.1885 6.15866 11.8051C6.52787 12.4226 7.43082 12.6726 8.17028 12.3637Z" fill="black"/>
<path fill-rule="evenodd" clip-rule="evenodd" d="M6.59984 15.0153L12.6 19.216C13.2632 19.6802 14.2036 19.5541 14.7001 18.9367C15.1966 18.3193 15.063 17.4389 14.4002 16.9769L8.40002 12.7762C7.73682 12.312 6.79635 12.4381 6.29987 13.0555C5.80341 13.6729 5.93701 14.5533 6.59984 15.0153Z" fill="black"/>
</svg>
