<svg width="134" height="134" viewBox="0 0 134 134" fill="none" xmlns="http://www.w3.org/2000/svg">
<path d="M81.25 81.25L106.562 26.5625L51.875 51.875L26.5625 106.562L81.25 81.25ZM19.375 19.6875C32.5 6.5625 48.2292 0 66.5625 0C84.8958 0 100.521 6.5625 113.438 19.6875C126.562 32.6042 133.125 48.2292 133.125 66.5625C133.125 84.8958 126.562 100.625 113.438 113.75C100.521 126.667 84.8958 133.125 66.5625 133.125C48.2292 133.125 32.5 126.667 19.375 113.75C6.45833 100.625 0 84.8958 0 66.5625C0 48.2292 6.45833 32.6042 19.375 19.6875ZM61.25 61.5625C62.7083 60.1042 64.4792 59.375 66.5625 59.375C68.6458 59.375 70.3125 60.1042 71.5625 61.5625C73.0208 62.8125 73.75 64.4792 73.75 66.5625C73.75 68.6458 73.0208 70.4167 71.5625 71.875C70.3125 73.125 68.6458 73.75 66.5625 73.75C64.4792 73.75 62.7083 73.125 61.25 71.875C60 70.4167 59.375 68.6458 59.375 66.5625C59.375 64.4792 60 62.8125 61.25 61.5625Z" fill="#F59E0B"/>
</svg>
