<svg width="30" height="30" viewBox="0 0 30 30" fill="none" xmlns="http://www.w3.org/2000/svg">
<path d="M18.2809 18.2812L23.9763 5.97656L11.6716 11.6719L5.97625 23.9766L18.2809 18.2812ZM4.35906 4.42969C7.31219 1.47656 10.8513 0 14.9763 0C19.1013 0 22.6169 1.47656 25.5231 4.42969C28.4763 7.33594 29.9528 10.8516 29.9528 14.9766C29.9528 19.1016 28.4763 22.6406 25.5231 25.5938C22.6169 28.5 19.1013 29.9531 14.9763 29.9531C10.8513 29.9531 7.31219 28.5 4.35906 25.5938C1.45281 22.6406 -0.000310898 19.1016 -0.000310898 14.9766C-0.000310898 10.8516 1.45281 7.33594 4.35906 4.42969ZM13.7809 13.8516C14.1091 13.5234 14.5075 13.3594 14.9763 13.3594C15.445 13.3594 15.82 13.5234 16.1013 13.8516C16.4294 14.1328 16.5934 14.5078 16.5934 14.9766C16.5934 15.4453 16.4294 15.8438 16.1013 16.1719C15.82 16.4531 15.445 16.5938 14.9763 16.5938C14.5075 16.5938 14.1091 16.4531 13.7809 16.1719C13.4997 15.8438 13.3591 15.4453 13.3591 14.9766C13.3591 14.5078 13.4997 14.1328 13.7809 13.8516Z" fill="#D41111"/>
</svg>
